<svg width="197" height="38" viewBox="0 0 197 38" fill="none" xmlns="http://www.w3.org/2000/svg">
<mask id="mask0_42_813" style="mask-type:alpha" maskUnits="userSpaceOnUse" x="0" y="4" width="28" height="30">
<path d="M8.89428 30.3657C8.89428 32.3669 7.27197 33.9892 5.27075 33.9892C3.26953 33.9892 1.64722 32.3669 1.64722 30.3657C1.64722 28.3645 3.26953 26.7422 5.27075 26.7422C7.27197 26.7422 8.89428 28.3645 8.89428 30.3657Z" fill="#C4C4C4"/>
<path d="M26.3533 30.3657C26.3533 32.3669 24.731 33.9892 22.7297 33.9892C20.7285 33.9892 19.1062 32.3669 19.1062 30.3657C19.1062 28.3645 20.7285 26.7422 22.7297 26.7422C24.731 26.7422 26.3533 28.3645 26.3533 30.3657Z" fill="#C4C4C4"/>
<path d="M5.27051 26.7412C7.04771 26.7412 8.52647 28.0206 8.83527 29.7087C8.90075 30.0666 8.59951 30.3643 8.23562 30.3643H7.90625C5.98329 30.3643 4.22175 29.6766 2.85144 28.5351C2.59278 28.3196 2.56408 27.9329 2.8112 27.7042C3.45718 27.1066 4.32106 26.7412 5.27051 26.7412ZM28 22.459C28 23.7838 27.6731 25.0318 27.0967 26.1283C26.8965 26.5092 26.3825 26.543 26.0486 26.2716C25.1425 25.5355 23.9878 25.0938 22.7295 25.0938C20.0415 25.0938 17.8235 27.1064 17.4996 29.7068C17.4547 30.0679 17.1641 30.3643 16.8002 30.3643H11.1998C10.8359 30.3643 10.5453 30.0679 10.5004 29.7068C10.1766 27.1064 7.95856 25.0938 5.27051 25.0938C4.01203 25.0938 2.85678 25.5353 1.95058 26.2715C1.61656 26.5428 1.10248 26.5091 0.902356 26.1281C0.326377 25.0316 3.39183e-05 23.7835 0 22.459V20.8112C0 20.4473 0.294965 20.1523 0.658824 20.1523H27.3412C27.705 20.1523 28 20.4473 28 20.8112V22.459ZM22.7295 26.7412C23.6787 26.7412 24.5419 27.1067 25.1877 27.7042C25.4348 27.9328 25.4062 28.3196 25.1474 28.5351C23.7773 29.6764 22.0164 30.3643 20.0938 30.3643H19.7654C19.4015 30.3643 19.1002 30.0666 19.1657 29.7087C19.4743 28.0207 20.9523 26.7412 22.7295 26.7412ZM28 17.847C28 18.2109 27.705 18.5059 27.3412 18.5059H0.658823C0.294965 18.5059 0 18.2109 0 17.847V13.8942C0 13.5303 0.294965 13.2354 0.658824 13.2354H27.3412C27.705 13.2354 28 13.5303 28 13.8942V17.847ZM20.0938 4.01172C24.1164 4.01172 27.4358 7.0164 27.9335 10.9037C27.9811 11.2751 27.6792 11.5879 27.3048 11.5879H0.695236C0.320768 11.5879 0.0189166 11.2751 0.0664747 10.9037C0.564197 7.0164 3.88363 4.01172 7.90625 4.01172H20.0938Z" fill="#C4C4C4"/>
</mask>
<g mask="url(#mask0_42_813)">
<rect x="-1.64722" y="1.70508" width="33.6" height="10.8706" fill="url(#paint0_linear_42_813)"/>
<rect x="-1.64722" y="19.4941" width="33.6" height="16.4706" fill="#FFA833"/>
<rect x="-1.64722" y="12.5762" width="33.6" height="7.24706" rx="3.62353" fill="#F17228"/>
<rect x="-23.0586" y="26.7422" width="31.9529" height="7.24706" fill="#F58D00"/>
<rect x="19.1062" y="26.7422" width="31.9529" height="7.24706" fill="#F58D00"/>
<ellipse cx="8.11249" cy="6.82218" rx="1" ry="0.5" transform="rotate(-20.8548 8.11249 6.82218)" fill="white"/>
<ellipse cx="14" cy="6.5" rx="1" ry="0.5" fill="white"/>
<ellipse cx="19.1176" cy="6.91225" rx="1" ry="0.5" transform="rotate(28.1155 19.1176 6.91225)" fill="white"/>
</g>
<path d="M41.8955 30.5V10.2162H54.6818V14.0738H46.4687V18.7715H53.4996V22.6291H46.4687V30.5H41.8955ZM63.1386 30.8733C61.832 30.8733 60.598 30.5622 59.4365 29.94C58.2958 29.2971 57.3729 28.3741 56.6677 27.1712C55.9626 25.9475 55.61 24.4854 55.61 22.7847C55.61 21.0632 55.9626 19.6011 56.6677 18.3981C57.3729 17.1952 58.2958 16.2826 59.4365 15.6604C60.598 15.0175 61.832 14.696 63.1386 14.696C64.4453 14.696 65.6689 15.0175 66.8096 15.6604C67.9504 16.2826 68.8733 17.1952 69.5785 18.3981C70.2836 19.6011 70.6362 21.0632 70.6362 22.7847C70.6362 24.4854 70.2836 25.9475 69.5785 27.1712C68.8733 28.3741 67.9504 29.2971 66.8096 29.94C65.6689 30.5622 64.4453 30.8733 63.1386 30.8733ZM63.1386 27.1712C64.072 27.1712 64.7771 26.7771 65.2541 25.989C65.7312 25.1802 65.9697 24.112 65.9697 22.7847C65.9697 21.4366 65.7312 20.3684 65.2541 19.5803C64.7771 18.7922 64.072 18.3981 63.1386 18.3981C62.1846 18.3981 61.4691 18.7922 60.992 19.5803C60.5358 20.3684 60.3076 21.4366 60.3076 22.7847C60.3076 24.112 60.5358 25.1802 60.992 25.989C61.4691 26.7771 62.1846 27.1712 63.1386 27.1712ZM79.6173 30.8733C78.3107 30.8733 77.0767 30.5622 75.9152 29.94C74.7745 29.2971 73.8516 28.3741 73.1464 27.1712C72.4412 25.9475 72.0887 24.4854 72.0887 22.7847C72.0887 21.0632 72.4412 19.6011 73.1464 18.3981C73.8516 17.1952 74.7745 16.2826 75.9152 15.6604C77.0767 15.0175 78.3107 14.696 79.6173 14.696C80.924 14.696 82.1476 15.0175 83.2883 15.6604C84.429 16.2826 85.352 17.1952 86.0571 18.3981C86.7623 19.6011 87.1149 21.0632 87.1149 22.7847C87.1149 24.4854 86.7623 25.9475 86.0571 27.1712C85.352 28.3741 84.429 29.2971 83.2883 29.94C82.1476 30.5622 80.924 30.8733 79.6173 30.8733ZM79.6173 27.1712C80.5506 27.1712 81.2558 26.7771 81.7328 25.989C82.2098 25.1802 82.4484 24.112 82.4484 22.7847C82.4484 21.4366 82.2098 20.3684 81.7328 19.5803C81.2558 18.7922 80.5506 18.3981 79.6173 18.3981C78.6633 18.3981 77.9477 18.7922 77.4707 19.5803C77.0144 20.3684 76.7863 21.4366 76.7863 22.7847C76.7863 24.112 77.0144 25.1802 77.4707 25.989C77.9477 26.7771 78.6633 27.1712 79.6173 27.1712ZM94.976 30.8733C93.068 30.8733 91.5332 30.1578 90.3717 28.7267C89.231 27.2749 88.6607 25.2942 88.6607 22.7847C88.6607 21.1047 88.9614 19.6633 89.5629 18.4604C90.1851 17.2367 90.9836 16.3034 91.9584 15.6604C92.9539 15.0175 93.9909 14.696 95.0694 14.696C95.9197 14.696 96.6353 14.8412 97.216 15.1316C97.7967 15.4219 98.3463 15.816 98.8648 16.3138L98.6782 13.9494V8.69175H103.251V30.5H99.5181L99.207 28.9756H99.0826C98.5433 29.5148 97.9108 29.9711 97.1849 30.3444C96.459 30.697 95.7227 30.8733 94.976 30.8733ZM96.1582 27.1401C96.656 27.1401 97.1019 27.0364 97.496 26.829C97.9108 26.6216 98.3048 26.2586 98.6782 25.7401V19.4248C98.2841 19.0514 97.8589 18.7922 97.4026 18.647C96.9671 18.5018 96.5419 18.4292 96.1271 18.4292C95.4012 18.4292 94.7583 18.7818 94.1983 19.487C93.6383 20.1714 93.3583 21.2499 93.3583 22.7225C93.3583 24.2365 93.5968 25.3564 94.0738 26.0824C94.5716 26.7875 95.2664 27.1401 96.1582 27.1401Z" fill="#F17228"/>
<path d="M108.703 30.5L104.939 10.2162H109.636L111.036 19.7048C111.161 20.7625 111.296 21.8306 111.441 22.9091C111.586 23.9669 111.721 25.035 111.845 26.1135H111.97C112.177 25.035 112.374 23.9669 112.561 22.9091C112.768 21.8306 112.976 20.7625 113.183 19.7048L115.361 10.2162H119.25L121.427 19.7048C121.635 20.721 121.832 21.7684 122.018 22.8469C122.226 23.9254 122.433 25.0142 122.641 26.1135H122.765C122.91 25.0142 123.045 23.9357 123.169 22.878C123.315 21.7995 123.46 20.7418 123.605 19.7048L125.005 10.2162H129.391L125.783 30.5H120.027L118.036 21.2914C117.87 20.5033 117.715 19.7151 117.57 18.927C117.445 18.1181 117.331 17.3404 117.227 16.5937H117.103C116.978 17.3404 116.844 18.1181 116.698 18.927C116.574 19.7151 116.429 20.5033 116.263 21.2914L114.365 30.5H108.703ZM134.579 30.8733C133.169 30.8733 132.049 30.4274 131.219 29.5356C130.39 28.623 129.975 27.5134 129.975 26.2068C129.975 24.5891 130.659 23.3239 132.028 22.4113C133.397 21.4988 135.606 20.8869 138.655 20.5758C138.613 19.8914 138.406 19.3522 138.033 18.9581C137.68 18.5433 137.079 18.3359 136.228 18.3359C135.585 18.3359 134.932 18.4604 134.268 18.7092C133.605 18.9581 132.899 19.3003 132.153 19.7359L130.504 16.7182C131.479 16.1167 132.516 15.6293 133.615 15.256C134.735 14.8827 135.896 14.696 137.099 14.696C139.07 14.696 140.584 15.2664 141.641 16.4071C142.699 17.5478 143.228 19.3003 143.228 21.6647V30.5H139.495L139.184 28.9134H139.059C138.416 29.4941 137.721 29.9711 136.975 30.3444C136.249 30.697 135.45 30.8733 134.579 30.8733ZM136.135 27.3268C136.653 27.3268 137.099 27.2127 137.473 26.9845C137.867 26.7357 138.261 26.4142 138.655 26.0201V23.3135C137.037 23.5209 135.917 23.8528 135.295 24.3091C134.673 24.7446 134.362 25.2631 134.362 25.8646C134.362 26.3623 134.517 26.7357 134.828 26.9845C135.16 27.2127 135.596 27.3268 136.135 27.3268ZM151.825 37.0643C150.622 37.0643 149.533 36.9294 148.558 36.6598C147.584 36.3902 146.806 35.965 146.225 35.3843C145.645 34.8036 145.354 34.0569 145.354 33.1444C145.354 31.9 146.09 30.863 147.563 30.0333V29.9089C147.169 29.6393 146.827 29.2971 146.536 28.8823C146.267 28.4675 146.132 27.9386 146.132 27.2956C146.132 26.7357 146.298 26.1964 146.63 25.6779C146.962 25.1594 147.376 24.7342 147.874 24.4024V24.278C147.335 23.9046 146.847 23.3654 146.412 22.6602C145.997 21.9551 145.79 21.1566 145.79 20.2647C145.79 19.0203 146.09 17.9937 146.692 17.1848C147.293 16.3552 148.081 15.733 149.056 15.3182C150.031 14.9034 151.068 14.696 152.167 14.696C153.08 14.696 153.878 14.8205 154.563 15.0693H160.194V18.3981H157.736C157.881 18.6263 157.995 18.9166 158.078 19.2692C158.182 19.6218 158.234 20.0055 158.234 20.4203C158.234 21.6025 157.964 22.5773 157.425 23.3447C156.886 24.112 156.16 24.6824 155.247 25.0557C154.335 25.429 153.308 25.6157 152.167 25.6157C151.566 25.6157 150.944 25.512 150.301 25.3046C149.927 25.6157 149.741 25.9994 149.741 26.4557C149.741 26.8497 149.917 27.1401 150.27 27.3268C150.622 27.5134 151.224 27.6068 152.074 27.6068H154.563C156.471 27.6068 157.923 27.9179 158.918 28.5401C159.934 29.1415 160.443 30.137 160.443 31.5266C160.443 32.5844 160.09 33.5281 159.385 34.3577C158.68 35.208 157.684 35.8717 156.398 36.3487C155.112 36.8257 153.588 37.0643 151.825 37.0643ZM152.167 22.8469C152.769 22.8469 153.267 22.6291 153.661 22.1936C154.075 21.758 154.283 21.1151 154.283 20.2647C154.283 19.4559 154.075 18.844 153.661 18.4292C153.267 17.9937 152.769 17.7759 152.167 17.7759C151.566 17.7759 151.058 17.9833 150.643 18.3981C150.249 18.8129 150.052 19.4351 150.052 20.2647C150.052 21.1151 150.249 21.758 150.643 22.1936C151.058 22.6291 151.566 22.8469 152.167 22.8469ZM152.541 34.2021C153.578 34.2021 154.428 34.0155 155.092 33.6421C155.755 33.2688 156.087 32.8229 156.087 32.3044C156.087 31.8274 155.88 31.5059 155.465 31.34C155.071 31.1741 154.49 31.0911 153.723 31.0911H152.136C151.618 31.0911 151.182 31.0704 150.83 31.0289C150.498 31.0081 150.207 30.9667 149.958 30.9044C149.398 31.4022 149.118 31.9103 149.118 32.4288C149.118 33.0096 149.43 33.4451 150.052 33.7355C150.695 34.0466 151.524 34.2021 152.541 34.2021ZM168.519 30.8733C167.046 30.8733 165.719 30.5519 164.537 29.9089C163.355 29.266 162.421 28.343 161.737 27.1401C161.052 25.9372 160.71 24.4854 160.71 22.7847C160.71 21.1047 161.052 19.6633 161.737 18.4604C162.442 17.2574 163.355 16.3345 164.475 15.6915C165.594 15.0279 166.766 14.696 167.99 14.696C169.463 14.696 170.676 15.0279 171.63 15.6915C172.605 16.3345 173.331 17.2159 173.808 18.3359C174.305 19.4351 174.554 20.6899 174.554 22.1002C174.554 22.4943 174.533 22.8884 174.492 23.2824C174.451 23.6558 174.409 23.9357 174.368 24.1224H165.128C165.335 25.2424 165.802 26.072 166.528 26.6112C167.254 27.1297 168.125 27.389 169.141 27.389C170.24 27.389 171.35 27.0468 172.47 26.3623L173.994 29.1312C173.206 29.6704 172.325 30.0956 171.35 30.4067C170.375 30.7178 169.431 30.8733 168.519 30.8733ZM165.097 21.1047H170.665C170.665 20.2544 170.458 19.5596 170.043 19.0203C169.649 18.4604 168.996 18.1804 168.083 18.1804C167.378 18.1804 166.746 18.4292 166.186 18.927C165.626 19.404 165.263 20.1299 165.097 21.1047ZM176.937 30.5V15.0693H180.67L180.981 17.0293H181.105C181.769 16.4071 182.495 15.8678 183.283 15.4116C184.092 14.9345 185.015 14.696 186.052 14.696C187.732 14.696 188.945 15.256 189.692 16.376C190.459 17.4752 190.843 18.9892 190.843 20.9181V30.5H186.27V21.5092C186.27 20.3892 186.114 19.6218 185.803 19.207C185.513 18.7922 185.036 18.5848 184.372 18.5848C183.791 18.5848 183.293 18.7196 182.879 18.9892C182.464 19.2381 182.008 19.6011 181.51 20.0781V30.5H176.937Z" fill="#FFB30E"/>
<defs>
<linearGradient id="paint0_linear_42_813" x1="14.9999" y1="3.49902" x2="14.9999" y2="20.999" gradientUnits="userSpaceOnUse">
<stop stop-color="#FFD16D"/>
<stop offset="1" stop-color="#FF7A00"/>
</linearGradient>
</defs>
</svg>
